<svg id="Layer_1" data-name="Layer 1" xmlns="http://www.w3.org/2000/svg" viewBox="0 0 250.5 58.8"><defs><style>.cls-1{fill:#e11f26;}</style></defs><path d="M132.75,60.8h-10.9V30.7h10.8V60.8Zm0-33.7h-10.9V18.3h10.8v8.8Z" transform="translate(-51.95 -12.2)"/><path d="M149.85,60.8h-10.8V30.9h10.8v4.6a10.45,10.45,0,0,1,4.7-3.9q2.85-1.2,8.7-1.2c4.9,0,8.5.9,11,2.7s3.7,4.6,3.7,8.2V60.7h-10.8v-15c0-2.7-.6-4.4-1.8-5.2s-3.5-1.2-6.9-1.2c-3.1,0-5.4.5-6.7,1.6s-2,2.9-2,5.5V60.8Z" transform="translate(-51.95 -12.2)"/><path d="M195.35,62.5c0,3.2-.7,5.4-2.2,6.7s-4.3,1.8-8.3,1.8a14.08,14.08,0,0,1-2-.1,23.2,23.2,0,0,1-2.4-.2V63.1a2.64,2.64,0,0,1,.7.1,3.22,3.22,0,0,0,.8.1,2.48,2.48,0,0,0,2-.8,4,4,0,0,0,.6-2.5V30.7h10.8V62.5Zm0-35.4h-10.8V18.3h10.8Z" transform="translate(-51.95 -12.2)"/><path d="M212.65,60.8h-10.8V30.7h10.8Zm0-33.7h-10.8V18.3h10.8Z" transform="translate(-51.95 -12.2)"/><path d="M229.85,60.8H219V30.9h10.8v4.6a10.45,10.45,0,0,1,4.7-3.9q2.85-1.2,8.7-1.2c4.9,0,8.5.9,11,2.7s3.7,4.6,3.7,8.2V60.7h-10.8v-15c0-2.7-.6-4.4-1.8-5.2s-3.5-1.2-6.9-1.2c-3.1,0-5.4.5-6.7,1.6s-2,2.9-2,5.5V60.8Z" transform="translate(-51.95 -12.2)"/><path d="M275.35,62.5c0,3.2-.8,5.4-2.2,6.7s-4.3,1.8-8.3,1.8a14.08,14.08,0,0,1-2-.1,23.2,23.2,0,0,1-2.4-.2V63.1a2.64,2.64,0,0,1,.7.1,3.22,3.22,0,0,0,.8.1,2.48,2.48,0,0,0,2-.8,4,4,0,0,0,.6-2.5V30.7h10.8V62.5Zm0-35.4h-10.8V18.3h10.8Z" transform="translate(-51.95 -12.2)"/><path d="M292.55,60.8h-10.8V30.7h10.8Zm0-33.7h-10.8V18.3h10.8Z" transform="translate(-51.95 -12.2)"/><path d="M295.05,16.9a3.76,3.76,0,1,1,1.1,2.6,3.27,3.27,0,0,1-1.1-2.6m3.7-3.2a2.94,2.94,0,0,0-2.2.9,3.1,3.1,0,0,0-.9,2.2,2.94,2.94,0,0,0,.9,2.2,3.1,3.1,0,0,0,2.2.9A2.94,2.94,0,0,0,301,19a3.1,3.1,0,0,0,.9-2.2,2.94,2.94,0,0,0-.9-2.2,3.1,3.1,0,0,0-2.2-.9m-1.6,1.2h1.4a2.13,2.13,0,0,1,1.2.3.91.91,0,0,1,.4.8,1.85,1.85,0,0,1-.2.7,2.09,2.09,0,0,1-.6.4l.9,1.8h-.7l-.8-1.7H298v1.7h-.7v-4Zm.7.5v1.3h.9a1.07,1.07,0,0,0,.6-.2.76.76,0,0,0,.2-.5.55.55,0,0,0-.3-.5,1.55,1.55,0,0,0-.8-.2h-.6Z" transform="translate(-51.95 -12.2)"/><path class="cls-1" d="M100.75,18.8c-.1-.1-.4-.1-.7-.1h-.5v1h.8a.75.75,0,0,0,.5-.1c.1-.1.1-.2.1-.4A.4.4,0,0,0,100.75,18.8Z" transform="translate(-51.95 -12.2)"/><path class="cls-1" d="M80.25,22.9A18.7,18.7,0,1,0,99,41.6,18.74,18.74,0,0,0,80.25,22.9Zm13.4,27.9c-4.4,1.7-8.2-.2-11.4-1.3-4.5-1.6-9.8.3-12.1,2.1l-3-3,13.7-22.2L92,44.8h-2.9L81,32l-8.5,14.3a15.43,15.43,0,0,1,10-.2c2.5.7,8.2,3.5,11.3,1.6ZM82.35,40.5a1.3,1.3,0,1,1-1.3-1.3A1.26,1.26,0,0,1,82.35,40.5Z" transform="translate(-51.95 -12.2)"/><path class="cls-1" d="M100.25,17.5a2.41,2.41,0,0,0-1.8.7,2.21,2.21,0,0,0,0,3.4,2.49,2.49,0,0,0,1.9.7,2.41,2.41,0,0,0,1.8-.7,2.21,2.21,0,0,0,0-3.4A2.81,2.81,0,0,0,100.25,17.5Zm1.3,3.9H101l-.7-1.3h-.7v1.3H99V18.3h1.2a2.51,2.51,0,0,1,1,.2.82.82,0,0,1,.4.6.76.76,0,0,1-.2.5.55.55,0,0,1-.5.3Z" transform="translate(-51.95 -12.2)"/><path class="cls-1" d="M52,12.2V68.8h56.6V12.2Zm28.3,52.3A22.85,22.85,0,1,1,103,41.6,22.73,22.73,0,0,1,80.25,64.5Zm22.1-42.6a2.78,2.78,0,0,1-2.1.8,3.49,3.49,0,0,1-2.2-.8,2.67,2.67,0,0,1,0-4,3.29,3.29,0,0,1,2.2-.8,3,3,0,0,1,2.1.8,2.67,2.67,0,0,1,0,4Z" transform="translate(-51.95 -12.2)"/></svg>